<?xml version="1.0" standalone="no"?><!DOCTYPE svg PUBLIC "-//W3C//DTD SVG 1.1//EN" "http://www.w3.org/Graphics/SVG/1.1/DTD/svg11.dtd"><svg width="600" height="1200" version="1.1" xmlns="http://www.w3.org/2000/svg" xmlns:xlink="http://www.w3.org/1999/xlink"><defs xmlns="http://www.w3.org/1999/xhtml"><style type="text/css"><![CDATA[
body { background-color: rgb(234, 234, 234); }
#canvas svg { box-shadow: rgba(0, 0, 0, 0.0588235) 0px 3px 2px 0px, rgba(0, 0, 0, 0.0196078) -1px -1px 1px 0px inset; border-width: 1px; border-style: solid; border-color: rgb(226, 226, 226) rgb(226, 226, 226) rgb(206, 206, 206); background-color: white; }]]></style></defs><rect x="0" y="0" width="600" height="1200" fill="rgb(0, 0, 0)" fill-opacity="0.9" stroke="rgb(0, 0, 0)"/><path d="M 266.0615634173155 0 Q 300 145.65479562152177 300 800" fill="none" stroke="rgb(255, 255, 255)" stroke-width="3.6514998248312622"/><path d="M 120.17835946753621 0 Q 300 258.7893420830369 300 800" fill="none" stroke="rgb(255, 255, 255)" stroke-width="1.7234551021829247"/><path d="M 51.019352744333446 0 Q 300 70.13916545547545 300 800" fill="none" stroke="rgb(255, 255, 255)" stroke-width="2.1208889468107373"/><path d="M 166.1681854398921 0 Q 300 161.18049554061145 300 800" fill="none" stroke="rgb(255, 255, 255)" stroke-width="3.956734820269048"/><path d="M 266.43011304549873 0 Q 300 171.19203109759837 300 800" fill="none" stroke="rgb(255, 255, 255)" stroke-width="3.268428566167131"/><path d="M 76.08334561809897 0 Q 300 190.62160304747522 300 800" fill="none" stroke="rgb(255, 255, 255)" stroke-width="1.5212362497113645"/><path d="M 193.56311049778014 0 Q 300 15.401311428286135 300 800" fill="none" stroke="rgb(255, 255, 255)" stroke-width="3.0028577123302966"/><path d="M 48.90338578261435 0 Q 300 74.26405311562121 300 800" fill="none" stroke="rgb(255, 255, 255)" stroke-width="1.7535284634213895"/><path d="M 225.61175753362477 0 Q 300 47.857681196182966 300 800" fill="none" stroke="rgb(255, 255, 255)" stroke-width="1.8076763681601733"/><path d="M 274.469085666351 0 Q 300 143.15965175628662 300 800" fill="none" stroke="rgb(255, 255, 255)" stroke-width="3.8599799561779946"/><path d="M 165.4590610647574 0 Q 300 98.66669371258467 300 800" fill="none" stroke="rgb(255, 255, 255)" stroke-width="1.0038801541086286"/><path d="M 60.07229557726532 0 Q 300 21.622032509185374 300 800" fill="none" stroke="rgb(255, 255, 255)" stroke-width="2.28342196601443"/><path d="M 51.32107436656952 0 Q 300 132.841716427356 300 800" fill="none" stroke="rgb(255, 255, 255)" stroke-width="2.911898098187521"/><path d="M 184.58506604656577 0 Q 300 202.93894896749407 300 800" fill="none" stroke="rgb(255, 255, 255)" stroke-width="2.830951649462804"/><path d="M 299.8299733735621 0 Q 300 214.04649268370122 300 800" fill="none" stroke="rgb(255, 255, 255)" stroke-width="2.2673359643667936"/><path d="M 234.54957925714552 0 Q 300 152.43766754865646 300 800" fill="none" stroke="rgb(255, 255, 255)" stroke-width="2.730361359193921"/><path d="M 157.0013245102018 0 Q 300 243.30087422858924 300 800" fill="none" stroke="rgb(255, 255, 255)" stroke-width="1.8475016567390412"/><path d="M 133.5066055180505 0 Q 300 167.93331122025847 300 800" fill="none" stroke="rgb(255, 255, 255)" stroke-width="3.255031402921304"/><path d="M 192.49409632757306 0 Q 300 249.96116068214178 300 800" fill="none" stroke="rgb(255, 255, 255)" stroke-width="2.826301744673401"/><path d="M 76.74977257847786 0 Q 300 228.5370465600863 300 800" fill="none" stroke="rgb(255, 255, 255)" stroke-width="3.8797310232184827"/><path d="M 61.442597256973386 0 Q 300 261.1792591167614 300 800" fill="none" stroke="rgb(255, 255, 255)" stroke-width="3.3934690083842725"/><path d="M 285.8862570254132 0 Q 300 228.55565194040537 300 800" fill="none" stroke="rgb(255, 255, 255)" stroke-width="1.7564579693134874"/><path d="M 150.2850215183571 0 Q 300 37.96778975520283 300 800" fill="none" stroke="rgb(255, 255, 255)" stroke-width="3.848975097062066"/><path d="M 45.635208603926 0 Q 300 267.7027389407158 300 800" fill="none" stroke="rgb(255, 255, 255)" stroke-width="3.470753643196076"/><path d="M 106.40631895512342 0 Q 300 6.63449764251709 300 800" fill="none" stroke="rgb(255, 255, 255)" stroke-width="3.221889323554933"/><path d="M 92.92735238559544 0 Q 300 17.364477762021124 300 800" fill="none" stroke="rgb(255, 255, 255)" stroke-width="2.8002836368978024"/><path d="M 150.46591192949563 0 Q 300 285.5428531067446 300 800" fill="none" stroke="rgb(255, 255, 255)" stroke-width="1.1399211848620325"/><path d="M 4.876323114149272 0 Q 300 3.401477448642254 300 800" fill="none" stroke="rgb(255, 255, 255)" stroke-width="2.246919385390356"/><path d="M 266.0810077562928 0 Q 300 151.5080200508237 300 800" fill="none" stroke="rgb(255, 255, 255)" stroke-width="3.271470050094649"/><path d="M 200.49796281382442 0 Q 300 3.7597656715661287 300 800" fill="none" stroke="rgb(255, 255, 255)" stroke-width="1.1622602364514023"/><path d="M 304.3346351478249 0 Q 300 82.37620673608035 300 800" fill="none" stroke="rgb(255, 255, 255)" stroke-width="3.14739495376125"/><path d="M 529.6633552294225 0 Q 300 229.49119715485722 300 800" fill="none" stroke="rgb(255, 255, 255)" stroke-width="2.798113126307726"/><path d="M 529.6876400476322 0 Q 300 115.09203901514411 300 800" fill="none" stroke="rgb(255, 255, 255)" stroke-width="1.5288278826046735"/><path d="M 373.56178269255906 0 Q 300 266.0907983779907 300 800" fill="none" stroke="rgb(255, 255, 255)" stroke-width="1.0251201265491545"/><path d="M 302.2735036443919 0 Q 300 137.95060508418828 300 800" fill="none" stroke="rgb(255, 255, 255)" stroke-width="2.865231591043994"/><path d="M 300.50404749345034 0 Q 300 130.14470238704234 300 800" fill="none" stroke="rgb(255, 255, 255)" stroke-width="2.642187141580507"/><path d="M 488.85977449826896 0 Q 300 183.01235656253994 300 800" fill="none" stroke="rgb(255, 255, 255)" stroke-width="1.1033118383493274"/><path d="M 548.8368839258328 0 Q 300 11.492585088126361 300 800" fill="none" stroke="rgb(255, 255, 255)" stroke-width="3.3078165317419916"/><path d="M 594.6019141701981 0 Q 300 172.43930529803038 300 800" fill="none" stroke="rgb(255, 255, 255)" stroke-width="2.840564436512068"/><path d="M 523.7413798458874 0 Q 300 3.568010777235031 300 800" fill="none" stroke="rgb(255, 255, 255)" stroke-width="2.5615981600712985"/><path d="M 310.27317128609866 0 Q 300 151.03368940763175 300 800" fill="none" stroke="rgb(255, 255, 255)" stroke-width="3.7315260362811387"/><path d="M 475.0076043885201 0 Q 300 280.17016297671944 300 800" fill="none" stroke="rgb(255, 255, 255)" stroke-width="2.0743429022841156"/><path d="M 586.0677811084315 0 Q 300 193.65514589007944 300 800" fill="none" stroke="rgb(255, 255, 255)" stroke-width="3.304581293137744"/><path d="M 484.74732858594507 0 Q 300 102.45818551629782 300 800" fill="none" stroke="rgb(255, 255, 255)" stroke-width="3.4449960589408875"/><path d="M 393.856876459904 0 Q 300 278.0678662005812 300 800" fill="none" stroke="rgb(255, 255, 255)" stroke-width="3.1910656185355037"/><path d="M 421.6894520446658 0 Q 300 182.60554703883827 300 800" fill="none" stroke="rgb(255, 255, 255)" stroke-width="2.4625496154185385"/><path d="M 554.2422374244779 0 Q 300 22.473306627944112 300 800" fill="none" stroke="rgb(255, 255, 255)" stroke-width="3.3323118293192238"/><path d="M 353.7327673053369 0 Q 300 157.5329993152991 300 800" fill="none" stroke="rgb(255, 255, 255)" stroke-width="2.8451158232055604"/><path d="M 373.12014342751354 0 Q 300 178.96275508683175 300 800" fill="none" stroke="rgb(255, 255, 255)" stroke-width="3.1773229148238897"/><path d="M 533.989173732698 0 Q 300 225.6947292946279 300 800" fill="none" stroke="rgb(255, 255, 255)" stroke-width="1.7712437121663243"/><path d="M 408.2340856315568 0 Q 300 273.7936841323972 300 800" fill="none" stroke="rgb(255, 255, 255)" stroke-width="1.1810255623422563"/><path d="M 317.8866554517299 0 Q 300 268.40808608103544 300 800" fill="none" stroke="rgb(255, 255, 255)" stroke-width="1.4980000983923674"/><path d="M 587.2904998250306 0 Q 300 14.588335691951215 300 800" fill="none" stroke="rgb(255, 255, 255)" stroke-width="3.34878729050979"/><path d="M 364.09126999787986 0 Q 300 251.68104395270348 300 800" fill="none" stroke="rgb(255, 255, 255)" stroke-width="3.803878046106547"/><path d="M 407.6625806512311 0 Q 300 212.8670398844406 300 800" fill="none" stroke="rgb(255, 255, 255)" stroke-width="1.7989219983574003"/><path d="M 455.719416635111 0 Q 300 207.9321472439915 300 800" fill="none" stroke="rgb(255, 255, 255)" stroke-width="3.206079210853204"/><path d="M 473.8052155589685 0 Q 300 241.60138140432537 300 800" fill="none" stroke="rgb(255, 255, 255)" stroke-width="1.6896510242950171"/><path d="M 553.0831133946776 0 Q 300 37.372247921302915 300 800" fill="none" stroke="rgb(255, 255, 255)" stroke-width="1.836541515775025"/><path d="M 451.0357781779021 0 Q 300 75.87519160006195 300 800" fill="none" stroke="rgb(255, 255, 255)" stroke-width="1.556990090990439"/><path d="M 421.6684796847403 0 Q 300 24.97113354038447 300 800" fill="none" stroke="rgb(255, 255, 255)" stroke-width="3.6075562012847513"/><line x1="300" y1="800" x2="300" y2="840" fill="rgb(128, 128, 128)" stroke="rgb(255, 255, 255)" stroke-width="1.5"/><line x1="300" y1="800" x2="300" y2="880" fill="rgb(128, 128, 128)" stroke="rgb(255, 255, 255)"/><path d="M -40 0 C -20 -100 20 -100 50 0" transform="translate(300 950)" fill="none" stroke="rgb(255, 255, 255)" stroke-width="20"/><path d="M -50 0 C -20 -100 20 -100 50 0" transform="translate(300 950)" fill="none" stroke="rgb(0, 0, 0)" stroke-width="20"/><circle cx="305" cy="1035" r="100" fill="rgb(255, 255, 255)" stroke="rgb(0, 0, 0)"/><circle cx="300" cy="1030" r="100" fill="rgb(0, 0, 0)" stroke="rgb(0, 0, 0)"/><circle cx="281" cy="1011" r="78" fill="rgb(255, 255, 255)" fill-opacity="0.01" stroke="none"/><circle cx="280" cy="1010" r="76" fill="rgb(255, 255, 255)" fill-opacity="0.02" stroke="none"/><circle cx="279" cy="1009" r="74" fill="rgb(255, 255, 255)" fill-opacity="0.03" stroke="none"/><circle cx="278" cy="1008" r="72" fill="rgb(255, 255, 255)" fill-opacity="0.04" stroke="none"/><circle cx="277" cy="1007" r="70" fill="rgb(255, 255, 255)" fill-opacity="0.05" stroke="none"/><circle cx="276" cy="1006" r="68" fill="rgb(255, 255, 255)" fill-opacity="0.06" stroke="none"/><circle cx="275" cy="1005" r="66" fill="rgb(255, 255, 255)" fill-opacity="0.07" stroke="none"/><circle cx="274" cy="1004" r="64" fill="rgb(255, 255, 255)" fill-opacity="0.08" stroke="none"/><circle cx="273" cy="1003" r="62" fill="rgb(255, 255, 255)" fill-opacity="0.09" stroke="none"/><circle cx="272" cy="1002" r="60" fill="rgb(255, 255, 255)" fill-opacity="0.1" stroke="none"/><circle cx="271" cy="1001" r="58" fill="rgb(255, 255, 255)" fill-opacity="0.11" stroke="none"/><circle cx="270" cy="1000" r="56" fill="rgb(255, 255, 255)" fill-opacity="0.12" stroke="none"/><circle cx="269" cy="999" r="54" fill="rgb(255, 255, 255)" fill-opacity="0.13" stroke="none"/><circle cx="268" cy="998" r="52" fill="rgb(255, 255, 255)" fill-opacity="0.14" stroke="none"/><circle cx="267" cy="997" r="50" fill="rgb(255, 255, 255)" fill-opacity="0.15" stroke="none"/><circle cx="266" cy="996" r="48" fill="rgb(255, 255, 255)" fill-opacity="0.16" stroke="none"/><circle cx="265" cy="995" r="46" fill="rgb(255, 255, 255)" fill-opacity="0.17" stroke="none"/><circle cx="264" cy="994" r="44" fill="rgb(255, 255, 255)" fill-opacity="0.18" stroke="none"/><circle cx="263" cy="993" r="42" fill="rgb(255, 255, 255)" fill-opacity="0.19" stroke="none"/><circle cx="262" cy="992" r="40" fill="rgb(255, 255, 255)" fill-opacity="0.2" stroke="none"/><circle cx="261" cy="991" r="38" fill="rgb(255, 255, 255)" fill-opacity="0.21" stroke="none"/><circle cx="260" cy="990" r="36" fill="rgb(255, 255, 255)" fill-opacity="0.22" stroke="none"/><circle cx="259" cy="989" r="34" fill="rgb(255, 255, 255)" fill-opacity="0.23" stroke="none"/><circle cx="258" cy="988" r="32" fill="rgb(255, 255, 255)" fill-opacity="0.24" stroke="none"/><circle cx="257" cy="987" r="30" fill="rgb(255, 255, 255)" fill-opacity="0.25" stroke="none"/><circle cx="256" cy="986" r="28" fill="rgb(255, 255, 255)" fill-opacity="0.26" stroke="none"/><circle cx="255" cy="985" r="26" fill="rgb(255, 255, 255)" fill-opacity="0.27" stroke="none"/><circle cx="254" cy="984" r="24" fill="rgb(255, 255, 255)" fill-opacity="0.28" stroke="none"/><circle cx="253" cy="983" r="22" fill="rgb(255, 255, 255)" fill-opacity="0.29" stroke="none"/></svg>